<svg width="24" height="23" viewBox="0 0 24 23" fill="none" xmlns="http://www.w3.org/2000/svg">
  <path
    d="M11.2692 1.03184C9.26512 1.19132 7.34892 1.92275 5.74827 3.13922C4.14762 4.35569 2.92981 6.00608 2.23953 7.8943C1.54925 9.78253 1.4155 11.8292 1.85418 13.7912C2.29286 15.7532 3.28553 17.5481 4.71426 18.9625C6.14298 20.3769 7.9477 21.3515 9.91401 21.7704C11.8803 22.1894 13.9256 22.0351 15.8068 21.3259C17.6879 20.6166 19.326 19.3823 20.5263 17.7695C21.7267 16.1567 22.4388 14.2332 22.5781 12.2276"
    stroke="currentColor" stroke-width="2" stroke-linecap="round" stroke-linejoin="round" />
  <path
    d="M10.3395 6.99305C9.58859 7.28479 8.92225 7.7591 8.40073 8.37309C7.87921 8.98709 7.51896 9.72139 7.35256 10.5096C7.18616 11.2978 7.21885 12.1151 7.44769 12.8875C7.67652 13.6599 8.09428 14.3631 8.66318 14.9334C9.23209 15.5038 9.93419 15.9234 10.706 16.1542C11.4778 16.385 12.295 16.4198 13.0836 16.2554C13.8723 16.0911 14.6075 15.7327 15.2228 15.2128C15.8381 14.6928 16.3142 14.0277 16.6078 13.2776M12.1004 11.5004L16.1393 7.46156M16.1393 7.46156L15.3316 4.23045L18.5627 0.999334L19.3704 4.23045L22.6016 5.03822L19.3704 8.26934L16.1393 7.46156Z"
    stroke="currentColor" stroke-width="2" stroke-linecap="round" stroke-linejoin="round" />
</svg>