<svg width="24" height="24" viewBox="0 0 24 24" fill="none" xmlns="http://www.w3.org/2000/svg">
  <g clip-path="url(#clip0_23_6650)">
    <path
      d="M0 5C0 3.67392 0.526784 2.40215 1.46447 1.46447C2.40215 0.526784 3.67392 0 5 0H19C20.3261 0 21.5979 0.526784 22.5355 1.46447C23.4732 2.40215 24 3.67392 24 5V19C24 20.3261 23.4732 21.5979 22.5355 22.5355C21.5979 23.4732 20.3261 24 19 24H5C3.67392 24 2.40215 23.4732 1.46447 22.5355C0.526784 21.5979 0 20.3261 0 19V5ZM5 2C4.20435 2 3.44129 2.31607 2.87868 2.87868C2.31607 3.44129 2 4.20435 2 5V19C2 19.7957 2.31607 20.5587 2.87868 21.1213C3.44129 21.6839 4.20435 22 5 22H19C19.7957 22 20.5587 21.6839 21.1213 21.1213C21.6839 20.5587 22 19.7957 22 19V5C22 4.20435 21.6839 3.44129 21.1213 2.87868C20.5587 2.31607 19.7957 2 19 2H5ZM13 17C13 16.7348 13.1054 16.4804 13.2929 16.2929C13.4804 16.1054 13.7348 16 14 16H18.5C18.7652 16 19.0196 16.1054 19.2071 16.2929C19.3946 16.4804 19.5 16.7348 19.5 17C19.5 17.2652 19.3946 17.5196 19.2071 17.7071C19.0196 17.8946 18.7652 18 18.5 18H14C13.7348 18 13.4804 17.8946 13.2929 17.7071C13.1054 17.5196 13 17.2652 13 17ZM14 8C13.7348 8 13.4804 8.10536 13.2929 8.29289C13.1054 8.48043 13 8.73478 13 9C13 9.26522 13.1054 9.51957 13.2929 9.70711C13.4804 9.89464 13.7348 10 14 10H18.5C18.7652 10 19.0196 9.89464 19.2071 9.70711C19.3946 9.51957 19.5 9.26522 19.5 9C19.5 8.73478 19.3946 8.48043 19.2071 8.29289C19.0196 8.10536 18.7652 8 18.5 8H14ZM10.708 14.292C10.8011 14.3849 10.875 14.4952 10.9254 14.6167C10.9758 14.7382 11.0018 14.8685 11.0018 15C11.0018 15.1315 10.9758 15.2618 10.9254 15.3833C10.875 15.5048 10.8011 15.6151 10.708 15.708L7.708 18.708C7.61511 18.8011 7.50476 18.875 7.38327 18.9254C7.26178 18.9758 7.13154 19.0018 7 19.0018C6.86847 19.0018 6.73822 18.9758 6.61673 18.9254C6.49524 18.875 6.38489 18.8011 6.292 18.708L4.796 17.212C4.70302 17.119 4.62927 17.0086 4.57895 16.8872C4.52864 16.7657 4.50274 16.6355 4.50274 16.504C4.50274 16.3725 4.52864 16.2423 4.57895 16.1208C4.62927 15.9994 4.70302 15.889 4.796 15.796C4.98377 15.6082 5.23845 15.5027 5.504 15.5027C5.63549 15.5027 5.76569 15.5286 5.88717 15.579C6.00865 15.6293 6.11902 15.703 6.212 15.796L7 16.586L9.292 14.292C9.38489 14.1989 9.49524 14.125 9.61673 14.0746C9.73822 14.0242 9.86847 13.9982 10 13.9982C10.1315 13.9982 10.2618 14.0242 10.3833 14.0746C10.5048 14.125 10.6151 14.1989 10.708 14.292ZM10.708 7.708C10.801 7.61502 10.8747 7.50465 10.925 7.38317C10.9754 7.26169 11.0013 7.13149 11.0013 7C11.0013 6.86851 10.9754 6.73831 10.925 6.61683C10.8747 6.49535 10.801 6.38498 10.708 6.292C10.615 6.19902 10.5046 6.12527 10.3832 6.07495C10.2617 6.02464 10.1315 5.99874 10 5.99874C9.86851 5.99874 9.73831 6.02464 9.61683 6.07495C9.49535 6.12527 9.38498 6.19902 9.292 6.292L7 8.586L6.212 7.796C6.02423 7.60823 5.76955 7.50274 5.504 7.50274C5.23845 7.50274 4.98377 7.60823 4.796 7.796C4.60823 7.98377 4.50274 8.23845 4.50274 8.504C4.50274 8.76955 4.60823 9.02423 4.796 9.212L6.292 10.708C6.38489 10.8011 6.49524 10.875 6.61673 10.9254C6.73822 10.9758 6.86847 11.0018 7 11.0018C7.13154 11.0018 7.26178 10.9758 7.38327 10.9254C7.50476 10.875 7.61511 10.8011 7.708 10.708L10.708 7.708Z"
      fill="currentColor" />
  </g>
  <defs>
    <clipPath id="clip0_23_6650">
      <rect width="24" height="24" fill="white" />
    </clipPath>
  </defs>
</svg>