<svg width="12" height="7" viewBox="0 0 12 7" fill="none" xmlns="http://www.w3.org/2000/svg">
<path d="M6 4.7968L1.54675 0.278654C1.46376 0.191476 1.36449 0.12194 1.25473 0.0741038C1.14497 0.0262671 1.02692 0.00108762 0.907463 3.44627e-05C0.788009 -0.00101869 0.669544 0.0220756 0.558981 0.0679698C0.448418 0.113864 0.34797 0.181639 0.2635 0.26734C0.179029 0.353041 0.112228 0.454953 0.0669928 0.567127C0.0217581 0.679302 -0.00100422 0.799493 3.33786e-05 0.920688C0.00107193 1.04188 0.0258894 1.16166 0.0730391 1.27302C0.120189 1.38438 0.188725 1.48509 0.274651 1.56929L5.36395 6.73276C5.53266 6.90387 5.76145 7 6 7C6.23855 7 6.46734 6.90387 6.63605 6.73276L11.7253 1.56929C11.8113 1.48509 11.8798 1.38438 11.927 1.27302C11.9741 1.16166 11.9989 1.04188 12 0.920688C12.001 0.799493 11.9782 0.679302 11.933 0.567127C11.8878 0.454953 11.821 0.353041 11.7365 0.26734C11.652 0.181639 11.5516 0.113864 11.441 0.0679698C11.3305 0.0220756 11.212 -0.00101869 11.0925 3.44627e-05C10.9731 0.00108762 10.855 0.0262671 10.7453 0.0741038C10.6355 0.12194 10.5362 0.191476 10.4532 0.278654L6 4.7968Z" fill="#C1C1C1"/>
</svg>
