<svg width="24" height="24" viewBox="0 0 24 24" fill="none" xmlns="http://www.w3.org/2000/svg">
  <path
    d="M11.9004 0C9.52702 0 7.20694 0.703788 5.23355 2.02236C3.26016 3.34094 1.72209 5.21508 0.813841 7.4078C-0.09441 9.60051 -0.33205 12.0133 0.130973 14.3411C0.593995 16.6689 1.73688 18.807 3.41511 20.4853C5.09334 22.1635 7.23154 23.3064 9.55931 23.7694C11.8871 24.2324 14.2999 23.9948 16.4926 23.0865C18.6853 22.1783 20.5595 20.6402 21.878 18.6668C23.1966 16.6934 23.9004 14.3734 23.9004 12C23.8968 8.81851 22.6313 5.76838 20.3817 3.51873C18.132 1.26908 15.0819 0.00362976 11.9004 0ZM11.9004 22.2857C9.17245 22.2857 6.55624 21.202 4.6273 19.2731C2.69835 17.3441 1.61468 14.7279 1.61468 12C1.61468 9.27206 2.69835 6.65585 4.6273 4.7269C6.55624 2.79796 9.17245 1.71429 11.9004 1.71429V12L19.1698 19.2694C18.2165 20.2262 17.0835 20.9852 15.836 21.5028C14.5885 22.0204 13.251 22.2865 11.9004 22.2857Z"
    fill="CurrentColor" />
</svg>