<svg width="24" height="24" viewBox="0 0 24 24" fill="none" xmlns="http://www.w3.org/2000/svg">
  <path
    d="M11.9993 10.5C12.8242 10.5 13.5307 10.2065 14.1186 9.6195C14.7066 9.0325 15.0001 8.326 14.9991 7.5C14.9991 6.675 14.7056 5.969 14.1186 5.382C13.5317 4.795 12.8252 4.501 11.9993 4.5C11.1743 4.5 10.4683 4.794 9.88138 5.382C9.29442 5.97 9.00044 6.676 8.99944 7.5C8.99944 8.325 9.29342 9.0315 9.88138 9.6195C10.4693 10.2075 11.1753 10.501 11.9993 10.5ZM11.2493 22.5V16.869C9.87038 16.767 8.67046 16.2675 7.64952 15.3705C6.62959 14.4735 5.99113 13.344 5.73414 11.982C4.14824 11.796 2.79583 11.146 1.6769 10.032C0.558965 8.917 0 7.573 0 6V5.4225C0 4.7565 0.237485 4.1865 0.712455 3.7125C1.18643 3.2375 1.75639 3 2.42235 3H5.48066V2.4225C5.48066 1.7565 5.71764 1.1865 6.19161 0.7125C6.66658 0.2375 7.23755 0 7.90451 0H16.097C16.763 0 17.3329 0.2375 17.8069 0.7125C18.2819 1.1865 18.5193 1.7565 18.5193 2.4225V3H21.5777C22.2436 3 22.8136 3.2375 23.2875 3.7125C23.7625 4.1865 24 4.7565 24 5.4225V6C24 7.573 23.441 8.917 22.3231 10.032C21.2042 11.146 19.8518 11.796 18.2659 11.982C18.0079 13.344 17.3689 14.474 16.349 15.372C15.329 16.268 14.1296 16.767 12.7507 16.869V22.5H16.673C16.8859 22.5 17.0644 22.572 17.2084 22.716C17.3524 22.86 17.4239 23.0385 17.4229 23.2515C17.4229 23.4635 17.3514 23.6415 17.2084 23.7855C17.0644 23.9285 16.8859 24 16.673 24H7.32854C7.11555 24 6.93707 23.928 6.79308 23.784C6.65008 23.64 6.57859 23.4615 6.57859 23.2485C6.57859 23.0365 6.65008 22.8585 6.79308 22.7145C6.93707 22.5715 7.11555 22.5 7.32854 22.5H11.2493ZM5.48066 10.3725V4.5H2.42235C2.15337 4.5 1.93238 4.5865 1.75939 4.7595C1.5864 4.9325 1.49991 5.1535 1.49991 5.4225V6C1.49991 7.123 1.88088 8.0995 2.64284 8.9295C3.40379 9.7595 4.34973 10.2405 5.48066 10.3725ZM12.0052 15.4035C13.3852 15.4035 14.5561 14.921 15.518 13.956C16.48 12.992 16.9609 11.821 16.9609 10.443V2.4225C16.9609 2.1535 16.8744 1.9325 16.7015 1.7595C16.5285 1.5865 16.307 1.5 16.037 1.5H7.9615C7.69152 1.5 7.47003 1.5865 7.29704 1.7595C7.12405 1.9325 7.03756 2.1535 7.03756 2.4225V10.443C7.03756 11.821 7.52053 12.992 8.48647 13.956C9.45241 14.921 10.6258 15.4035 12.0068 15.4035M18.5178 10.3725C19.6478 10.2405 20.5937 9.7595 21.3557 8.9295C22.1176 8.0995 22.4986 7.123 22.4986 6V5.4225C22.4986 5.1535 22.4121 4.9325 22.2391 4.7595C22.0661 4.5865 21.8451 4.5 21.5762 4.5H18.5178V10.3725Z"
    fill="currentColor" />
</svg>