<svg width="24" height="23" viewBox="0 0 24 23" fill="none" xmlns="http://www.w3.org/2000/svg">
  <path
    d="M14.3365 0C14.5149 5.48027e-06 14.6887 0.0552063 14.8329 0.157653C14.9771 0.260099 15.0843 0.404504 15.1389 0.570071L16.066 3.37771C16.4554 3.56336 16.828 3.772 17.1837 4.00693L20.1439 3.38593C20.3184 3.34961 20.5003 3.36822 20.6632 3.43908C20.8262 3.50994 20.9619 3.62939 21.0508 3.78021L23.3872 7.72143C23.4765 7.87217 23.5143 8.04663 23.4952 8.21966C23.4761 8.39268 23.4011 8.55533 23.281 8.68414L21.2497 10.8691C21.2793 11.2881 21.2793 11.7086 21.2497 12.1276L23.281 14.3159C23.4011 14.4447 23.4761 14.6073 23.4952 14.7803C23.5143 14.9534 23.4765 15.1278 23.3872 15.2786L21.0508 19.2214C20.9617 19.372 20.8259 19.4911 20.6629 19.5616C20.4999 19.6322 20.3182 19.6505 20.1439 19.6141L17.1837 18.9931C16.8297 19.2264 16.4554 19.4366 16.0677 19.6223L15.1389 22.4299C15.0843 22.5955 14.9771 22.7399 14.8329 22.8423C14.6887 22.9448 14.5149 23 14.3365 23H9.66355C9.4851 23 9.31126 22.9448 9.16705 22.8423C9.02285 22.7399 8.91574 22.5955 8.86113 22.4299L7.93566 19.6239C7.54729 19.4389 7.1727 19.2275 6.81463 18.9914L3.85614 19.6141C3.6816 19.6504 3.49975 19.6318 3.33676 19.5609C3.17377 19.4901 3.03807 19.3706 2.9492 19.2198L0.612753 15.2786C0.523533 15.1278 0.485743 14.9534 0.50483 14.7803C0.523917 14.6073 0.598896 14.4447 0.718955 14.3159L2.75028 12.1276C2.72086 11.7097 2.72086 11.2903 2.75028 10.8724L0.718955 8.68414C0.598896 8.55533 0.523917 8.39268 0.50483 8.21966C0.485743 8.04663 0.523533 7.87217 0.612753 7.72143L2.9492 3.77857C3.03832 3.62804 3.17412 3.50894 3.33709 3.43838C3.50006 3.36783 3.68178 3.34946 3.85614 3.38593L6.81463 4.00857C7.17201 3.77364 7.54625 3.56171 7.93566 3.37607L8.86282 0.570071C8.91725 0.405038 9.02385 0.261015 9.16738 0.158618C9.3109 0.0562209 9.48399 0.000699311 9.66186 0H14.3348H14.3365ZM13.7195 1.64286H10.2805L9.32303 4.54579L8.67738 4.853C8.35999 5.00437 8.05359 5.17672 7.76034 5.36886L7.16358 5.76314L4.10226 5.11914L2.38279 8.02371L4.48155 10.2876L4.43098 10.9841C4.40676 11.3276 4.40676 11.6724 4.43098 12.0159L4.48155 12.7124L2.37942 14.9763L4.10057 17.8809L7.1619 17.2385L7.75865 17.6311C8.0519 17.8233 8.3583 17.9956 8.6757 18.147L9.32134 18.4542L10.2805 21.3571H13.7228L14.6837 18.4526L15.3277 18.147C15.6447 17.996 15.9506 17.8236 16.243 17.6311L16.8381 17.2385L19.9011 17.8809L21.6206 14.9763L19.5201 12.7124L19.5707 12.0159C19.595 11.6718 19.595 11.3265 19.5707 10.9825L19.5201 10.2859L21.6223 8.02371L19.9011 5.11914L16.8381 5.75986L16.243 5.36886C15.9506 5.17634 15.6448 5.00397 15.3277 4.853L14.6837 4.54743L13.7212 1.64286H13.7195ZM12 6.57143C13.3413 6.57143 14.6276 7.09069 15.576 8.01497C16.5244 8.93926 17.0573 10.1929 17.0573 11.5C17.0573 12.8071 16.5244 14.0607 15.576 14.985C14.6276 15.9093 13.3413 16.4286 12 16.4286C10.6587 16.4286 9.3724 15.9093 8.42398 14.985C7.47556 14.0607 6.94275 12.8071 6.94275 11.5C6.94275 10.1929 7.47556 8.93926 8.42398 8.01497C9.3724 7.09069 10.6587 6.57143 12 6.57143ZM12 8.21429C11.1058 8.21429 10.2483 8.56046 9.61599 9.17665C8.98371 9.79284 8.6285 10.6286 8.6285 11.5C8.6285 12.3714 8.98371 13.2072 9.61599 13.8234C10.2483 14.4395 11.1058 14.7857 12 14.7857C12.8942 14.7857 13.7517 14.4395 14.384 13.8234C15.0163 13.2072 15.3715 12.3714 15.3715 11.5C15.3715 10.6286 15.0163 9.79284 14.384 9.17665C13.7517 8.56046 12.8942 8.21429 12 8.21429Z"
    fill="currentColor" />
</svg>