<svg width="14" height="10" viewBox="0 0 14 10" fill="none" xmlns="http://www.w3.org/2000/svg">
  <path
    d="M5.48526 9.72989C5.35399 9.73016 5.22396 9.7045 5.10264 9.6544C4.98131 9.60429 4.87108 9.53071 4.77826 9.43789L0.536255 5.19489C0.440682 5.10271 0.364424 4.99242 0.311931 4.87046C0.259437 4.74849 0.23176 4.61729 0.230513 4.48451C0.229266 4.35174 0.254475 4.22004 0.304669 4.09711C0.354863 3.97418 0.429037 3.86248 0.522862 3.76852C0.616687 3.67456 0.728286 3.60023 0.851145 3.54986C0.974005 3.49949 1.10566 3.4741 1.23844 3.47516C1.37122 3.47622 1.50246 3.50371 1.6245 3.55603C1.74654 3.60835 1.85694 3.68445 1.94926 3.77989L5.48426 7.31489L11.8493 0.951894C12.0368 0.764253 12.2911 0.658785 12.5564 0.658691C12.8217 0.658598 13.0761 0.763886 13.2638 0.951394C13.4514 1.1389 13.5569 1.39327 13.557 1.65854C13.5571 1.92381 13.4518 2.17825 13.2643 2.36589L6.19226 9.43789C6.09943 9.53071 5.9892 9.60429 5.86787 9.6544C5.74655 9.7045 5.61652 9.73016 5.48526 9.72989Z"
    fill="#FEBB39" />
</svg>