<svg width="24" height="22" viewBox="0 0 24 22" fill="none" xmlns="http://www.w3.org/2000/svg">
  <path
    d="M20.7548 20.8621H3.64366C2.99536 20.8621 2.3736 20.6046 1.91518 20.1462C1.45676 19.6877 1.19922 19.066 1.19922 18.4177V7.41767C1.19922 6.76936 1.45676 6.14761 1.91518 5.68919C2.3736 5.23076 2.99536 4.97322 3.64366 4.97322H20.7548C21.4031 4.97322 22.0248 5.23076 22.4833 5.68919C22.9417 6.14761 23.1992 6.76936 23.1992 7.41767V18.4177C23.1992 19.066 22.9417 19.6877 22.4833 20.1462C22.0248 20.6046 21.4031 20.8621 20.7548 20.8621Z"
    stroke="currentColor" stroke-width="1.5" />
  <path
    d="M17.699 13.5288C17.5369 13.5288 17.3815 13.4644 17.2669 13.3498C17.1523 13.2352 17.0879 13.0797 17.0879 12.9177C17.0879 12.7556 17.1523 12.6002 17.2669 12.4855C17.3815 12.3709 17.5369 12.3066 17.699 12.3066C17.8611 12.3066 18.0165 12.3709 18.1311 12.4855C18.2457 12.6002 18.3101 12.7556 18.3101 12.9177C18.3101 13.0797 18.2457 13.2352 18.1311 13.3498C18.0165 13.4644 17.8611 13.5288 17.699 13.5288Z"
    fill="currentColor" stroke="currentColor" stroke-width="1.5" stroke-linecap="round"
    stroke-linejoin="round" />
  <path
    d="M19.5326 4.97347V3.26603C19.5324 2.89142 19.4462 2.52185 19.2806 2.18585C19.115 1.84985 18.8743 1.55642 18.5772 1.32821C18.2802 1.1 17.9346 0.943124 17.5673 0.869691C17.1999 0.796258 16.8206 0.808235 16.4587 0.904697L3.01422 4.48947C2.49362 4.62821 2.03343 4.93505 1.70521 5.3623C1.37698 5.78954 1.1991 6.31326 1.19922 6.85203V7.41792"
    stroke="currentColor" stroke-width="1.5" />
</svg>